<svg xmlns="http://www.w3.org/2000/svg" version="1.1" xmlns:xlink="http://www.w3.org/1999/xlink" xmlns:svgjs="http://svgjs.dev/svgjs" width="1000" height="166" viewBox="0 0 1000 166"><g transform="matrix(1,0,0,1,-0.6060606060606233,-0.6254973463374682)"><svg viewBox="0 0 396 66" data-background-color="#ffffff" preserveAspectRatio="xMidYMid meet" height="166" width="1000" xmlns="http://www.w3.org/2000/svg" xmlns:xlink="http://www.w3.org/1999/xlink"><g id="tight-bounds" transform="matrix(1,0,0,1,0.2400000000000091,0.248692595058003)"><svg viewBox="0 0 395.52 65.50260677783217" height="65.50260677783217" width="395.52"><g><svg viewBox="0 0 574.5994879281295 95.16020507812499" height="65.50260677783217" width="395.52"><g><svg viewBox="0 0 574.5994879281295 95.16020507812499" height="95.16020507812499" width="574.5994879281295"><g id="textblocktransform"><svg viewBox="0 0 574.5994879281295 95.16020507812499" height="95.16020507812499" width="574.5994879281295" id="textblock"><g><svg viewBox="0 0 574.5994879281295 95.16020507812499" height="95.16020507812499" width="574.5994879281295"><g><svg><g></g><g></g></svg></g><g><svg><g><svg></svg></g><g></g></svg></g><g id="text-0"><svg viewBox="0 0 574.5994879281295 95.16020507812499" height="95.16020507812499" width="574.5994879281295"><g transform="matrix(1,0,0,1,0,19.7763241971208)"><svg width="395.5199999999999" viewBox="5.369999885559082 -38.66999816894531 278.8699951171875 39.209999084472656" height="55.60755668388339" data-palette-color="#1684ac"><path d="M5.37 0L5.37-38.16 13.11-38.16 36.89-25.71 36.89-38.16 44.63-38.16 44.63 0 36.89 0 36.89-17.5 13.11-29.88 13.11 0 5.37 0ZM54.44 0L54.44-38.16 62.23-38.16 62.23 0 54.44 0ZM83.59 0L83.59-31.37 69.5-31.37 69.5-38.16 105.41-38.16 105.41-31.37 91.33-31.37 91.33 0 83.59 0ZM113.66 0L113.66-38.16 121.4-38.16 121.4-6.79 143.6-6.79 143.6 0 113.66 0ZM162.78 0L162.78-9.45 146.11-38.16 154.87-38.16 166.62-16.46 178.21-38.16 186.98-38.16 170.52-9.5 170.52 0 162.78 0ZM190.22-19.43L190.22-19.43Q190.22-23.46 191.74-26.97 193.25-30.47 196.15-33.06 199.06-35.64 203.3-37.13 207.53-38.62 213-38.62L213-38.62Q214.98-38.62 216.97-38.42 218.96-38.21 220.9-37.77 222.84-37.33 224.68-36.66 226.53-35.99 228.19-35.06L228.19-35.06 224.62-29.2Q223.62-29.79 222.35-30.26 221.08-30.74 219.63-31.07 218.18-31.4 216.63-31.57 215.08-31.74 213.51-31.74L213.51-31.74Q209.9-31.74 207.07-30.82 204.24-29.91 202.28-28.26 200.33-26.61 199.3-24.32 198.28-22.02 198.28-19.29L198.28-19.29Q198.28-16.46 199.35-14.09 200.43-11.72 202.4-10.01 204.38-8.3 207.19-7.34 210-6.37 213.46-6.37L213.46-6.37Q216.22-6.37 218.52-6.99 220.81-7.62 222.52-8.76 224.23-9.91 225.3-11.54 226.38-13.16 226.72-15.19L226.72-15.19 213.39-15.19 213.39-21.56 233.68-21.56 233.68-21.53 233.7-21.56Q234.31-18.63 234.08-15.86 233.85-13.09 232.81-10.63 231.77-8.18 229.97-6.13 228.16-4.08 225.65-2.6 223.13-1.12 219.93-0.31 216.74 0.51 212.93 0.51L212.93 0.51Q207.6 0.51 203.39-1.05 199.18-2.61 196.25-5.32 193.32-8.03 191.77-11.67 190.22-15.31 190.22-19.43ZM240.59-19.19L240.59-19.19Q240.59-23.51 242.17-27.1 243.76-30.69 246.63-33.26 249.5-35.84 253.51-37.26 257.53-38.67 262.41-38.67L262.41-38.67Q267.27-38.67 271.3-37.26 275.33-35.84 278.2-33.26 281.06-30.69 282.65-27.1 284.24-23.51 284.24-19.19L284.24-19.19Q284.24-14.84 282.65-11.22 281.06-7.59 278.2-4.98 275.33-2.37 271.3-0.92 267.27 0.54 262.41 0.54L262.41 0.54Q257.53 0.54 253.51-0.92 249.5-2.37 246.63-4.98 243.76-7.59 242.17-11.22 240.59-14.84 240.59-19.19ZM248.32-19.19L248.32-19.19Q248.32-16.24 249.39-13.87 250.45-11.5 252.34-9.83 254.23-8.15 256.81-7.25 259.38-6.35 262.41-6.35L262.41-6.35Q265.44-6.35 268.01-7.25 270.59-8.15 272.47-9.83 274.35-11.5 275.42-13.87 276.5-16.24 276.5-19.19L276.5-19.19Q276.5-22.14 275.42-24.49 274.35-26.83 272.47-28.45 270.59-30.08 268.01-30.93 265.44-31.79 262.41-31.79L262.41-31.79Q259.38-31.79 256.81-30.93 254.23-30.08 252.34-28.45 250.45-26.83 249.39-24.49 248.32-22.14 248.32-19.19Z" opacity="1" transform="matrix(1,0,0,1,0,0)" fill="#1684ac" class="wordmark-text-0" data-fill-palette-color="primary"></path></svg></g><g><svg xmlns="http://www.w3.org/2000/svg" xmlns:xlink="http://www.w3.org/1999/xlink" version="1.2" baseProfile="tiny" x="410.4978320312499" y="0" viewBox="0.37599992752075195 19.509000778198242 99.9990005493164 57.98799133300781" xml:space="preserve" width="164.10165589687958" height="95.16020507812499" class="icon-s-0" data-fill-palette-color="accent" id="s-0"><path fill="#1684ac" d="M96.897 37.513c1.921 0 3.478-1.558 3.478-3.479 0-1.92-1.557-3.478-3.478-3.478s-3.478 1.558-3.478 3.478c0 0.422 0.079 0.825 0.217 1.2l-10.153 8.649-12.864-7.567c0.073-0.297 0.116-0.607 0.116-0.927 0-2.142-1.736-3.878-3.878-3.878-0.869 0-1.668 0.289-2.314 0.772L52.92 23.054c0.054-0.22 0.086-0.448 0.086-0.684 0-1.581-1.281-2.861-2.861-2.861s-2.861 1.281-2.861 2.861c0 0.729 0.275 1.393 0.724 1.898l-5.835 12.488c-0.26-0.045-0.526-0.074-0.8-0.074-0.86 0-1.662 0.239-2.351 0.647l-15.438-6.915c0.036-0.225 0.06-0.454 0.06-0.689 0-2.38-1.929-4.309-4.309-4.309-2.379 0-4.309 1.929-4.309 4.309s1.929 4.309 4.309 4.309c1.352 0 2.556-0.623 3.346-1.596l14.682 6.576c-0.384 0.674-0.607 1.452-0.607 2.284 0 0.852 0.293 1.605 0.694 2.29l-8.233 8.237c-1.136-0.811-2.506-1.294-4.003-1.294-2.642 0-4.915 1.501-6.082 3.684l-0.096-0.032c-0.001 0.012-0.004 0.023-0.005 0.035L7.553 49.002c0.016-0.134 0.025-0.271 0.025-0.409 0-1.989-1.612-3.601-3.601-3.601s-3.601 1.612-3.601 3.601 1.612 3.601 3.601 3.601c1.054 0 1.999-0.455 2.657-1.177l11.723 5.329c-0.005 0.013-0.009 0.025-0.015 0.037l0.056 0.019c-0.054 0.348-0.108 0.694-0.108 1.055 0 1.954 0.813 3.716 2.115 4.975l-0.017 0.013c0.004 0.005 0.008 0.01 0.012 0.014l-5.973 8.802c-0.155-0.027-0.314-0.044-0.478-0.044-1.479 0-2.678 1.198-2.678 2.678 0 1.479 1.199 2.678 2.678 2.678 1.479 0 2.678-1.199 2.678-2.678 0-0.501-0.14-0.969-0.38-1.37l5.364-7.904 0.71-0.877c0.881 0.407 1.859 0.641 2.894 0.641 1.902 0 3.629-0.771 4.883-2.016l6.993 4.991c-0.199 0.514-0.334 1.06-0.334 1.641 0 2.548 2.065 4.617 4.617 4.617 2.159 0 3.965-1.483 4.471-3.482l15.916-4.923c0.977 1.815 2.893 3.05 5.099 3.05 1.273 0 2.447-0.417 3.403-1.114l7.12 6.611c-0.038 0.193-0.059 0.393-0.059 0.597 0 1.734 1.406 3.14 3.14 3.14s3.139-1.405 3.139-3.14c0-1.733-1.405-3.139-3.139-3.139-0.707 0-1.358 0.236-1.883 0.631l-6.811-6.323c0.552-0.887 0.893-1.93 0.893-3.05 0-2.815-1.661-5.16-4.661-5.677V39.104c1-0.172 1.082-0.478 1.513-0.878l13.332 7.848 11.179 15.655c-0.092 0.23-0.146 0.481-0.146 0.745 0 1.125 0.91 2.037 2.035 2.037s2.037-0.912 2.037-2.037-0.913-2.037-2.038-2.037c-0.03 0-0.06 0.003-0.09 0.005L85.094 45.422l9.931-8.459C95.565 37.31 96.207 37.513 96.897 37.513zM61.07 62.474c0 0.21 0.013 0.416 0.035 0.62l-15.275 4.724c-0.522-1.975-2.316-3.435-4.458-3.435-1.123 0-2.114 0.451-2.913 1.113l-7.038-5.022c0.447-0.92 0.717-1.93 0.717-3.017 0-1.492-0.487-2.871-1.29-3.999l8.233-8.237c0.686 0.401 1.438 0.694 2.291 0.694 1.642 0 3.079-0.857 3.897-2.147l17.222 14.914C61.609 59.699 61.07 61.022 61.07 62.474zM66 56.797c-1 0.1-1.135 0.273-1.596 0.502l-18.36-15.846c0.002-0.052-0.023-0.102-0.023-0.154 0-1.485-0.718-2.802-1.806-3.646l5.799-12.428c0.046 0.002 0.088 0.007 0.134 0.007 0.53 0 1.023-0.147 1.449-0.399l11.621 9.229c-0.151 0.415-0.113 0.861-0.113 1.328 0 1.757 0.895 3.238 2.895 3.715V56.797z" data-fill-palette-color="accent"></path></svg></g></svg></g></svg></g></svg></g></svg></g></svg></g><defs></defs></svg><rect width="395.52" height="65.50260677783217" fill="none" stroke="none" visibility="hidden"></rect></g></svg></g></svg>